<svg width="14" height="15" viewBox="0 0 14 15" fill="none" xmlns="http://www.w3.org/2000/svg">
<path d="M9.75 9.17001C10.75 8.00335 11.2083 6.87835 11.125 5.79501C11.0417 4.71168 10.75 3.75335 10.25 2.92001C9.75 2.08668 9.08333 1.42001 8.25 0.920013C7.41667 0.420013 6.5 0.170013 5.5 0.170013C4.5 0.170013 3.58333 0.420013 2.75 0.920013C1.91667 1.42001 1.25 2.08668 0.75 2.92001C0.25 3.75335 0 4.67001 0 5.67001C0 6.67001 0.25 7.58668 0.75 8.42001C1.25 9.25335 1.91667 9.92001 2.75 10.42C3.58333 10.92 4.41667 11.17 5.25 11.17C6.08333 11.17 6.79167 11.045 7.375 10.795C7.95833 10.545 8.5 10.2533 9 9.92001L13.5 14.17L14 13.67L9.75 9.17001ZM5.5 10.17C4.66667 10.17 3.91667 9.96168 3.25 9.54501C2.58333 9.12835 2.04167 8.58668 1.625 7.92001C1.20833 7.25335 1 6.50335 1 5.67001C1 4.83668 1.20833 4.08668 1.625 3.42001C2.04167 2.75335 2.58333 2.21168 3.25 1.79501C3.91667 1.37835 4.66667 1.17001 5.5 1.17001C6.33333 1.17001 7.08333 1.37835 7.75 1.79501C8.41667 2.21168 8.95833 2.75335 9.375 3.42001C9.79167 4.08668 10 4.83668 10 5.67001C10 6.50335 9.79167 7.25335 9.375 7.92001C8.95833 8.58668 8.41667 9.12835 7.75 9.54501C7.08333 9.96168 6.33333 10.17 5.5 10.17Z" fill="black"/>
</svg>
