<svg width="14" height="16" viewBox="0 0 14 16" fill="none" xmlns="http://www.w3.org/2000/svg">
<path d="M11.25 3.92001H9.5C9.33333 3.25335 9.04167 2.58668 8.625 1.92001C8.20833 1.25335 7.58333 0.920013 6.75 0.920013C5.91667 0.920013 5.29167 1.21168 4.875 1.79501C4.45833 2.37835 4.16667 3.08668 4 3.92001H2.25C1.75 3.92001 1.25 4.12835 0.75 4.54501C0.25 4.96168 0 5.50335 0 6.17001V14.42C0 14.7533 0.125 15.0033 0.375 15.17C0.625 15.3367 0.833333 15.42 1 15.42H12.5C12.8333 15.42 13.0833 15.3367 13.25 15.17C13.4167 15.0033 13.5 14.7533 13.5 14.42V6.17001C13.5 5.50335 13.25 4.96168 12.75 4.54501C12.25 4.12835 11.75 3.92001 11.25 3.92001ZM6.75 1.92001C7.58333 1.92001 8.16667 2.58668 8.5 3.92001H5.25C5.41667 3.08668 5.625 2.54501 5.875 2.29501C6.125 2.04501 6.41667 1.92001 6.75 1.92001ZM12.5 14.42H1V6.17001C1 5.83668 1.125 5.54501 1.375 5.29501C1.625 5.04501 1.91667 4.92001 2.25 4.92001H4V7.67001H4.75L5 4.92001H8.5L8.75 7.67001H9.75L9.5 4.92001H11.25C11.5833 4.92001 11.875 5.04501 12.125 5.29501C12.375 5.54501 12.5 5.83668 12.5 6.17001V14.42Z" fill="black"/>
</svg>
