<svg width="260" height="30" viewBox="0 0 260 30" fill="none" xmlns="http://www.w3.org/2000/svg">
<g clip-path="url(#clip0_2_113)">
<path d="M54.4262 10.9464C54.3262 11.1463 54.2262 11.4462 54.2262 11.7461C54.2262 12.7458 54.926 13.4455 55.9256 13.4455C56.8253 13.4455 57.625 12.6458 57.625 11.7461C57.625 11.0464 57.2252 10.5465 56.7254 10.2466" fill="#040606"/>
<path d="M76.2186 20.2432L74.2193 21.1429V21.8426H80.4172V21.1429L78.5178 20.2432V13.5455C78.5178 12.3459 78.4179 11.4462 78.2179 10.8464C78.018 10.2466 77.6181 9.74682 77.0183 9.34696C76.4185 8.9471 75.5189 8.6472 74.6192 8.6472C73.8194 8.6472 72.9198 8.84713 72.22 9.24699C71.5202 9.64685 70.7205 10.2466 70.0208 11.1463V8.74717H69.1211L65.8222 9.44692V10.1467H66.1221C67.0218 10.1467 67.8215 10.9464 67.8215 11.8461C67.9215 12.146 67.9215 19.9433 67.8215 20.2432L65.9222 21.1429V21.8426H72.0201V21.1429L70.0208 20.2432V12.3459C70.6206 11.5462 71.1204 10.8464 71.8201 10.4466C72.5199 10.0467 73.1197 9.74682 73.9194 9.74682C74.5192 9.74682 75.119 9.94675 75.5189 10.2466C75.9187 10.5465 76.3186 11.2463 76.3186 12.046L76.2186 20.2432Z" fill="#040606"/>
<path d="M61.6237 13.7454C61.6237 14.2453 59.8243 15.4449 58.3248 15.9447C55.2259 16.9443 55.9256 19.7434 56.6254 20.3432C57.0253 20.6431 57.4251 20.843 57.9249 20.843C58.4248 20.843 59.2245 20.4431 59.8243 20.1432C60.4241 19.8433 60.9239 19.5434 61.6237 18.9436V14.0453C61.6237 14.0453 61.6237 11.7461 61.6237 11.2463C61.6237 10.5465 61.0239 10.0467 60.624 9.74683C60.1242 9.44693 59.5244 9.247 58.8246 9.247C57.3252 9.247 56.5254 9.74683 56.3255 10.7465C56.1256 11.7461 55.7257 12.3459 55.1259 12.3459C54.5261 12.3459 54.2262 12.046 54.2262 11.4462C54.2262 10.8464 54.6261 10.2467 55.4258 9.5469C56.2255 8.84714 57.4251 8.54724 59.1245 8.54724C60.4241 8.54724 61.4237 8.84714 62.1235 9.247C62.8233 9.64686 63.2231 10.1467 63.523 10.6465C63.7229 11.1463 63.8229 11.9461 63.8229 13.0457V19.1436C63.8229 20.1432 64.5227 20.843 65.5223 20.843V21.5427C65.5223 21.5427 64.7226 21.8426 64.0228 21.8426C63.3231 21.8426 62.8233 21.6427 62.4234 21.2428C62.0235 20.843 61.8236 20.3432 61.6237 19.6434C60.624 20.3432 59.7243 20.943 58.9246 21.2428C58.1249 21.6427 57.4251 21.8426 56.7254 21.8426C55.9256 21.8426 55.1259 21.6427 54.5261 21.1429C53.9263 20.6431 53.6264 19.7434 53.6264 18.9436C53.6264 17.2442 54.4262 15.8447 57.825 15.045C59.7243 14.6451 61.6237 12.9457 61.6237 11.9461" fill="#040606"/>
<path d="M52.3269 20.5431L46.4289 14.4452L50.0277 10.7465C50.7274 10.0467 51.8271 9.44692 52.8267 9.44692V8.74717H48.3283V9.44692C48.8281 9.44692 49.128 9.84679 49.128 10.3466C49.128 10.5465 49.028 10.7465 48.9281 10.8464L45.9291 13.9454L42.9301 10.8464C42.8302 10.6465 42.7302 10.4466 42.7302 10.2466C42.7302 9.74682 43.1301 9.34696 43.5299 9.34696V8.6472H38.2318V9.34696C38.6316 9.34696 39.0315 9.54689 39.3314 9.74682L44.5296 15.2449L39.5313 20.5431L38.3317 21.0429V21.7427H42.7302V21.0429L40.8309 20.1432L45.1294 15.7447L49.4279 20.1432L47.4286 21.0429V21.7427H53.6264V21.0429L52.3269 20.5431Z" fill="#040606"/>
<path d="M26.6358 21.7427V21.0429L24.7364 20.1432V0.649971H23.8367L20.5379 1.34973V2.04949H20.8378C21.7375 2.04949 22.5372 2.84921 22.5372 3.7489V20.1432L20.6379 21.0429V21.7427H26.6358Z" fill="#040606"/>
<path d="M115.305 9.84679C115.205 10.1467 115.105 10.4466 115.105 10.7465C115.105 11.7461 115.805 12.4459 116.805 12.4459C117.704 12.4459 118.504 11.6462 118.504 10.7465C118.504 10.5465 118.404 10.2466 118.404 10.0467C118.304 9.84679 118.204 9.64686 118.004 9.34696C117.604 8.9471 117.104 8.74717 116.505 8.74717C115.805 8.74717 115.005 9.04706 114.305 9.64686C113.706 10.1467 113.206 10.7465 112.906 11.4462V8.6472H112.006L108.707 9.34696V10.0467H109.007C109.907 10.0467 110.707 10.8464 110.707 11.7461V20.1432L108.807 21.0429V21.7427H114.905V21.0429L113.006 20.1432C113.006 19.8433 112.906 18.7437 112.906 17.4442V15.2449C112.906 14.1453 113.006 13.2456 113.206 12.5459C113.406 11.9461 113.806 11.2463 114.305 10.6465C114.405 10.1467 114.905 9.84679 115.305 9.84679Z" fill="#040606"/>
<path d="M65.5223 21.7429H65.8223V21.0429H65.5223V21.7429Z" fill="#040606"/>
<path d="M5.94294 13.4456L9.44173 4.54865L12.9405 13.4456H5.94294ZM18.6385 20.2432L11.0412 0.650002H10.2415L2.64408 19.7434L1.94433 20.2432L0.0449829 21.0429V21.7427H6.14287V21.0429L4.24353 20.1433C3.7437 19.9433 3.64374 19.7434 3.64374 19.3435C3.64374 19.2436 3.64374 19.1436 3.7437 19.0436L5.74301 14.1453H13.3404L15.7396 20.2432L13.7402 21.1429V21.8427H20.7378V21.1429L18.6385 20.2432Z" fill="#040606"/>
<path d="M35.6327 12.8457C35.6327 13.0457 35.6327 13.1456 35.5327 13.4455H29.7347L29.8347 12.8457C30.1346 10.5465 31.2342 9.34696 33.0336 9.34696C33.7333 9.34696 34.4331 9.54689 34.9329 10.0467C35.4327 10.5465 35.7326 11.2463 35.7326 12.146C35.7326 12.4459 35.7326 12.6458 35.6327 12.8457ZM33.2335 8.6472C31.5341 8.6472 30.1346 9.34696 29.035 10.6465C27.9353 11.9461 27.3355 13.6455 27.3355 15.6448C27.3355 17.0443 27.6354 18.2439 28.2352 19.2435C28.835 20.2432 29.5348 20.9429 30.4345 21.5427C31.3342 22.0426 32.3338 22.3425 33.3335 22.3425C34.4331 22.3425 35.4327 22.0426 36.4324 21.4428C37.3321 20.843 38.0318 20.0433 38.3317 18.9436H37.632C36.9322 20.643 35.6327 21.4428 33.8333 21.4428C32.5337 21.4428 31.5341 20.843 30.8343 19.7434C30.1346 18.6437 29.8347 16.9443 29.8347 14.7451C29.8347 14.5452 29.8347 14.3452 29.8347 14.0453H37.632L38.3317 13.3456C38.2318 12.146 37.8319 11.1463 36.9322 10.1467C36.0325 9.14703 34.8329 8.6472 33.2335 8.6472Z" fill="#040606"/>
<path d="M104.609 12.8457C104.609 13.0457 104.609 13.1456 104.509 13.4455H98.7108L98.8108 12.8457C99.1107 10.5465 100.21 9.34696 102.01 9.34696C102.709 9.34696 103.409 9.54689 103.909 10.0467C104.409 10.5465 104.709 11.2463 104.709 12.146C104.709 12.4459 104.709 12.6458 104.609 12.8457ZM102.21 8.6472C100.51 8.6472 99.1107 9.34696 98.0111 10.6465C96.9115 11.9461 96.3117 13.6455 96.3117 15.6448C96.3117 17.0443 96.6116 18.2439 97.2113 19.2435C97.8111 20.2432 98.5109 20.9429 99.4106 21.5427C100.31 22.0426 101.31 22.3425 102.31 22.3425C103.409 22.3425 104.409 22.0426 105.409 21.4428C106.308 20.843 107.008 20.0433 107.308 18.9436H106.608C105.808 20.643 104.609 21.4428 102.809 21.4428C101.51 21.4428 100.51 20.843 99.8104 19.7434C99.1107 18.6437 98.8108 16.9443 98.8108 14.7451C98.8108 14.5452 98.8108 14.3452 98.8108 14.0453H106.608L107.308 13.3456C107.208 12.146 106.808 11.1463 105.908 10.1467C105.009 9.14703 103.809 8.6472 102.21 8.6472Z" fill="#040606"/>
<path d="M91.4134 19.1436C90.9135 19.8433 90.3137 20.4431 89.614 20.843C89.0142 21.2428 88.3144 21.4428 87.5147 21.4428C86.4151 21.4428 85.4154 20.9429 84.7157 19.9433C83.916 18.9436 83.6161 17.4442 83.6161 15.4448C83.6161 13.4455 84.0159 11.9461 84.7157 11.0464C85.4154 10.1467 86.4151 9.74682 87.5147 9.74682C88.2145 9.74682 88.8143 9.84679 89.514 10.1467C90.2138 10.4466 90.8136 10.8464 91.5133 11.4462V19.1436H91.4134ZM95.5119 21.0429L93.6126 20.1432V0.649971H92.7129L89.4141 1.34973V2.04949H89.7139C90.6136 2.04949 91.4134 2.84921 91.4134 3.7489V10.5465C91.4134 10.5465 90.1138 9.44693 89.3141 9.14703C88.6143 8.84713 87.8146 8.6472 87.0149 8.6472C85.4154 8.6472 84.0159 9.24699 82.8163 10.5465C81.6168 11.8461 81.1169 13.4455 81.1169 15.5448C81.1169 17.4442 81.7167 19.0436 82.8163 20.3432C83.916 21.6427 85.3155 22.3425 86.9149 22.3425C87.7146 22.3425 88.5144 22.1425 89.3141 21.7427C90.0138 21.3428 90.7136 20.843 91.4134 20.1432V21.0429L92.1131 21.7427H95.6119L95.5119 21.0429Z" fill="#040606"/>
<path d="M156.491 21.4428C155.091 21.4428 153.992 20.843 153.292 19.7434C152.592 18.6437 152.192 17.0443 152.192 15.145C152.192 13.2456 152.492 11.7461 153.192 10.8464C153.892 9.84679 154.891 9.44693 156.191 9.44693C156.891 9.44693 157.391 9.5469 157.69 9.84679C157.89 10.0467 158.09 10.5465 158.19 11.0464C158.29 11.8461 158.69 12.246 159.39 12.246C159.69 12.246 159.89 12.146 160.09 11.9461C160.29 11.7461 160.29 11.4462 160.29 11.2463C160.29 10.5465 159.89 9.94676 158.99 9.5469C158.09 9.04707 157.191 8.84714 156.091 8.84714C154.392 8.84714 152.892 9.44693 151.593 10.7465C150.293 12.046 149.693 13.7454 149.693 15.7447C149.693 17.7441 150.293 19.3435 151.493 20.5431C152.692 21.7427 154.092 22.3425 155.891 22.3425C158.59 22.3425 160.29 21.1429 160.889 18.7437H160.19C159.69 20.5431 158.49 21.4428 156.491 21.4428Z" fill="#040606"/>
<path d="M158.69 13.0457C159.59 13.0457 160.389 12.246 160.389 11.3463C160.389 10.3466 159.69 9.64685 158.69 9.64685C157.79 9.64685 156.991 10.4466 156.991 11.3463C156.991 12.246 157.79 13.0457 158.69 13.0457Z" fill="#040606"/>
<path d="M147.994 1.34973H149.793V0.649971H143.595L136.898 17.844L130.2 0.649971H124.002V1.34973H125.602C126.501 1.34973 127.301 2.14945 127.301 3.04914V17.3442C127.301 18.7437 126.501 19.9433 125.402 20.4431L124.102 21.0429V21.7427H131.2V21.0429L129.9 20.4431C128.8 19.9433 128.001 18.6437 128.001 17.3442V2.94918L135.298 21.7427H136.098L143.395 3.04914V20.1432L141.496 21.0429H140.196V21.7427H149.793V21.0429H148.294L146.394 20.1432V3.04914C146.294 2.14945 146.994 1.34973 147.994 1.34973Z" fill="#040606"/>
<path d="M204.174 1.34973C203.275 1.34973 202.475 2.14945 202.475 3.04914V12.7458C202.475 14.5452 202.475 16.0446 202.275 16.9443C202.175 17.844 201.775 18.6437 201.075 19.4435C200.476 20.2432 199.576 20.9429 198.376 21.4428C197.177 21.9426 195.877 22.1425 194.378 22.1425C192.578 22.1425 191.079 21.8426 189.879 21.2428C188.68 20.6431 187.78 19.8433 187.28 18.8437C186.78 17.844 186.48 16.2446 186.48 14.5452V12.7458V3.04914C186.48 2.04949 185.781 1.34973 184.781 1.34973H183.781V0.649971H191.979V1.34973H190.979C190.079 1.34973 189.279 2.14945 189.279 3.04914V12.7458C189.279 15.045 189.379 16.6444 189.579 17.5441C189.779 18.4438 190.379 19.3435 191.279 20.0433C192.178 20.743 193.478 21.1429 194.978 21.1429C196.177 21.1429 197.277 20.9429 198.276 20.4431C199.276 19.9433 199.976 19.3435 200.476 18.6437C200.975 17.944 201.275 17.2442 201.375 16.4445C201.475 15.6448 201.575 14.3452 201.575 12.7458V3.04914C201.575 2.04949 200.875 1.34973 199.876 1.34973H198.876V0.649971H204.874V1.34973H204.174Z" fill="#040606"/>
<path d="M252.758 0.649971V1.34973H254.357C255.257 1.34973 256.056 2.14945 256.056 3.04914V16.8444L244.16 0.649971H238.462V1.34973H240.062C240.962 1.34973 241.761 2.14945 241.761 3.04914V17.3442C241.761 18.7437 240.962 19.9433 239.862 20.4431L238.562 21.0429V21.7427H245.66V21.0429L244.36 20.4431C243.261 19.8433 242.461 18.6437 242.461 17.2442V2.94918L255.956 21.7427H256.656V3.04914C256.656 2.04949 257.356 1.34973 258.356 1.34973H259.955V0.649971H252.758Z" fill="#040606"/>
<path d="M219.369 0.649971L219.869 5.74821H219.169C218.969 4.54862 218.469 3.54897 217.77 2.64928C217.17 1.84956 216.27 1.34973 215.171 1.34973H210.772V10.2466H214.271C215.171 10.2466 215.97 9.44693 215.97 8.44727V7.44762H216.67V13.7454H215.97V12.6458C215.97 11.6462 215.27 10.9464 214.271 10.9464H210.772V20.2432L212.671 21.1429H215.97L217.87 20.2432C219.569 19.2435 220.869 17.5441 221.168 15.5448H221.868L221.268 21.8426H205.974V21.1429L207.873 20.2432V3.04914C207.873 2.04949 207.173 1.34973 206.174 1.34973H205.174V0.649971H213.371" fill="#040606"/>
<path d="M236.063 0.649971L236.563 5.74821H235.863C235.663 4.54862 235.164 3.54897 234.464 2.64928C233.864 1.84956 232.964 1.34973 231.865 1.34973H227.466V10.2466H230.965C231.865 10.2466 232.664 9.44693 232.664 8.44727V7.44762H233.364V13.7454H232.664V12.6458C232.664 11.6462 231.965 10.9464 230.965 10.9464H227.466V20.2432L229.366 21.1429H232.664L234.564 20.2432C236.263 19.2435 237.563 17.5441 237.863 15.5448H238.562L237.963 21.8426H222.568V21.1429L224.467 20.2432V3.04914C224.467 2.04949 223.768 1.34973 222.768 1.34973H221.768V0.649971H229.965" fill="#040606"/>
<path d="M173.185 21.3428C170.586 21.3428 168.687 20.5431 167.387 18.8437C166.088 17.1443 165.488 14.6451 165.488 11.3463C165.488 8.04741 166.088 5.54827 167.387 3.84886C168.687 2.14945 170.486 1.34973 172.985 1.34973C175.484 1.34973 177.284 2.24941 178.583 3.94883C179.883 5.64824 180.483 8.14737 180.483 11.3463C180.483 14.6451 179.783 17.1443 178.483 18.8437C177.184 20.5431 175.384 21.3428 173.185 21.3428ZM185.981 26.7409C184.681 26.7409 182.982 26.3411 180.782 25.5414C177.883 24.5417 175.384 24.0419 173.185 24.0419C172.985 24.0419 172.685 24.0419 172.385 24.0419L176.784 21.5427C179.083 20.843 180.782 19.5434 181.982 17.6441C183.182 15.8447 183.781 13.6455 183.781 11.2463C183.781 9.14703 183.282 7.34765 182.382 5.64824C181.482 3.94883 180.083 2.64928 178.283 1.84955C176.484 0.949865 174.685 0.550003 172.785 0.550003C169.686 0.550003 167.087 1.54966 164.988 3.449C162.889 5.44831 161.889 7.94744 161.889 11.1463C161.889 14.4452 162.889 17.1443 164.988 19.1436C166.987 21.1429 169.686 22.1425 172.885 22.1425C173.385 22.1425 173.885 22.1425 174.385 22.0426L171.686 23.642C171.486 23.742 171.186 23.9419 170.986 24.0419C169.786 24.6417 168.987 25.0415 168.587 25.3414C168.187 25.6413 167.987 25.8412 167.987 26.1411C167.987 26.441 168.187 26.641 168.487 26.641C168.687 26.641 169.086 26.3411 169.686 25.8412C170.586 25.0415 171.486 24.6417 172.485 24.6417C174.085 24.6417 175.984 25.4414 178.383 26.9409C179.683 27.8406 180.782 28.4403 181.582 28.7402C182.382 29.0401 183.282 29.2401 184.281 29.2401C185.781 29.2401 187.08 28.8402 187.98 27.9405C188.98 27.0408 189.479 25.9412 189.679 24.5417H189.08C188.88 26.0412 187.78 26.7409 185.981 26.7409Z" fill="#040606"/>
</g>
<defs>
<clipPath id="clip0_2_113">
<rect width="259.91" height="28.89" fill="white" transform="translate(0.0449829 0.550003)"/>
</clipPath>
</defs>
</svg>
