<svg width="17" height="16" viewBox="0 0 17 16" fill="none" xmlns="http://www.w3.org/2000/svg">
<g clip-path="url(#clip0_2_100)">
<path d="M15.8295 8.31513C15.8295 9.34953 15.8361 10.3839 15.8295 11.4244C15.8032 13.6332 13.9466 15.3491 11.5502 15.3612C9.31182 15.3734 7.06682 15.3734 4.8284 15.3612C2.43857 15.3491 0.562245 13.6271 0.542495 11.4244C0.522744 9.35562 0.529327 7.28073 0.542495 5.21192C0.555662 2.97274 2.43856 1.24469 4.8679 1.23252C7.08657 1.22035 9.29865 1.22035 11.5173 1.23252C13.9598 1.24469 15.8164 2.96666 15.8361 5.21192C15.8427 6.24632 15.8361 7.28073 15.8361 8.32122L15.8295 8.31513ZM11.8465 8.29079C11.8465 6.44104 10.2138 4.91985 8.21236 4.90769C6.1912 4.89552 4.51239 6.43495 4.51239 8.30296C4.51239 10.1466 6.15828 11.6678 8.1531 11.68C10.2006 11.6861 11.8465 10.1771 11.8465 8.29079ZM13.0842 4.57911C12.9986 4.11059 12.7023 3.77593 12.1361 3.7881C11.616 3.80027 11.2737 4.11059 11.2671 4.59128C11.2539 5.1024 11.5831 5.43706 12.1559 5.44923C12.7287 5.45531 13.0183 5.12674 13.0842 4.57911Z" fill="black"/>
<path d="M10.6284 8.29122C10.6284 9.55684 9.52236 10.573 8.15297 10.5608C6.82309 10.5486 5.7368 9.53859 5.73022 8.30948C5.73022 7.05603 6.86259 6.02163 8.21223 6.0338C9.54211 6.04597 10.6218 7.06211 10.6284 8.29122Z" fill="black"/>
</g>
<defs>
<clipPath id="clip0_2_100">
<rect width="16" height="15" fill="white" transform="translate(0.530029 0.909912)"/>
</clipPath>
</defs>
</svg>
