<svg width="24" height="31" viewBox="0 0 24 31" fill="none" xmlns="http://www.w3.org/2000/svg">
<path d="M12.0383 22.9116H18.8261L18.0096 11.9451H12.0383" stroke="#1D1D1B" stroke-width="0.382775" stroke-linecap="round" stroke-linejoin="round"/>
<path d="M12.0192 8.90185C13.9905 8.86357 15.5216 11.1028 15.5662 14.3755" stroke="#1D1D1B" stroke-width="0.382775" stroke-linecap="round" stroke-linejoin="round"/>
<path d="M15.5598 16.1237C16.0383 16.1237 16.4274 15.7345 16.4274 15.2561C16.4274 14.7776 16.0383 14.3884 15.5598 14.3884C15.0814 14.3884 14.6922 14.7776 14.6922 15.2561C14.6922 15.7345 15.0814 16.1237 15.5598 16.1237Z" stroke="#1D1D1B" stroke-width="0.382775" stroke-linecap="round" stroke-linejoin="round"/>
<path d="M15.5534 14.8797C15.6938 14.8797 15.8022 14.7712 15.8022 14.6309C15.8022 14.4905 15.6938 14.3821 15.5534 14.3821C15.4131 14.3821 15.3046 14.4905 15.3046 14.6309C15.3046 14.7712 15.4131 14.8797 15.5534 14.8797Z" stroke="#1D1D1B" stroke-width="0.382775" stroke-linecap="round" stroke-linejoin="round"/>
<path d="M11.9681 22.9116H5.17383L5.99042 11.9451H11.9617" stroke="#1D1D1B" stroke-width="0.382775" stroke-linecap="round" stroke-linejoin="round"/>
<path d="M11.9872 8.90185C10.0159 8.86357 8.48484 11.1028 8.44019 14.3755" stroke="#1D1D1B" stroke-width="0.382775" stroke-linecap="round" stroke-linejoin="round"/>
<path d="M8.44654 16.1237C8.92501 16.1237 9.31417 15.7345 9.31417 15.2561C9.31417 14.7776 8.92501 14.3884 8.44654 14.3884C7.96807 14.3884 7.57892 14.7776 7.57892 15.2561C7.57892 15.7345 7.96807 16.1237 8.44654 16.1237Z" stroke="#1D1D1B" stroke-width="0.382775" stroke-linecap="round" stroke-linejoin="round"/>
<path d="M8.44656 14.8797C8.58053 14.8797 8.69536 14.7712 8.69536 14.6309C8.69536 14.4905 8.58691 14.3821 8.44656 14.3821C8.30621 14.3821 8.19775 14.4905 8.19775 14.6309C8.19775 14.7712 8.30621 14.8797 8.44656 14.8797Z" stroke="#1D1D1B" stroke-width="0.382775" stroke-linecap="round" stroke-linejoin="round"/>
</svg>
