<svg width="24" height="31" viewBox="0 0 24 31" fill="none" xmlns="http://www.w3.org/2000/svg">
<path d="M12.0383 17.6548C10.3221 17.6548 8.9314 15.843 8.9314 13.6038C8.9314 11.3645 10.3221 9.55273 12.0383 9.55273" stroke="#1D1D1B" stroke-width="0.318979" stroke-linecap="round" stroke-linejoin="round"/>
<path d="M10.5646 17.2593C10.5646 17.2593 10.5135 18.8669 8.80382 19.4411C7.09409 20.0089 6.72407 19.7154 5.73524 20.7553C5.10366 21.4188 5.21849 23.2051 5.21849 23.2051H11.9809" stroke="#1D1D1B" stroke-width="0.318979" stroke-linecap="round" stroke-linejoin="round"/>
<path d="M11.9617 17.6548C13.6778 17.6548 15.0686 15.843 15.0686 13.6038C15.0686 11.3645 13.6778 9.55273 11.9617 9.55273" stroke="#1D1D1B" stroke-width="0.318979" stroke-linecap="round" stroke-linejoin="round"/>
<path d="M13.4354 17.2593C13.4354 17.2593 13.4865 18.8669 15.1962 19.4411C16.9059 20.0089 17.2759 19.7154 18.2648 20.7553C18.8964 21.4188 18.7815 23.2051 18.7815 23.2051H12.0192" stroke="#1D1D1B" stroke-width="0.318979" stroke-linecap="round" stroke-linejoin="round"/>
<path d="M11.866 16.9275C9.98403 17.3932 8.15309 16.1109 7.73204 14.2544C7.52151 13.3421 7.65548 12.398 7.97446 11.5303C9.64591 7.33895 15.0686 7.7919 16.1276 12.1364C16.3253 13.0232 16.2934 13.9546 16.0191 14.8031C16.3891 13.0933 15.8788 11.1922 14.571 10.0248C13.3142 8.85091 11.2982 8.68504 9.90748 9.70578C7.82135 11.1157 7.18339 14.701 9.39073 16.3086C10.0861 16.8382 10.9984 17.0359 11.8724 16.9275H11.866Z" fill="#1D1D1B"/>
<path d="M8.79742 16.0215C8.94415 15.9322 8.88673 15.5685 8.66983 15.2049C8.45292 14.8413 8.15308 14.6244 8.00635 14.7137C7.85962 14.803 7.91704 15.1666 8.13394 15.5303C8.35085 15.8939 8.65069 16.1108 8.79742 16.0215Z" fill="#1D1D1B" stroke="#1D1D1B" stroke-width="0.0637959" stroke-miterlimit="10"/>
</svg>
