<svg width="20" height="14" viewBox="0 0 20 14" fill="none" xmlns="http://www.w3.org/2000/svg">
<g clip-path="url(#clip0_2_107)">
<path d="M15.6969 0.93042H3.66728C2.85099 0.93042 2.06845 1.25456 1.4914 1.83179C0.914147 2.40884 0.590027 3.19157 0.590027 4.00786V10.4423C0.590027 11.2586 0.914162 12.0411 1.4914 12.6182C2.06845 13.1954 2.85118 13.5195 3.66747 13.5195H15.6971C16.5134 13.5195 17.2959 13.1954 17.8729 12.6182C18.4502 12.0411 18.7743 11.2584 18.7743 10.4421V4.00766C18.7743 3.19137 18.4502 2.40884 17.8729 1.83179C17.2959 1.25454 16.5132 0.93042 15.6969 0.93042ZM13.3721 7.59716L7.91686 10.3947C7.78689 10.4621 7.63116 10.4568 7.50608 10.3807C7.38079 10.3048 7.30429 10.169 7.3041 10.0226V4.42743C7.3043 4.28108 7.38079 4.14526 7.50608 4.06934C7.63116 3.99324 7.78689 3.98797 7.91686 4.05529L13.3721 6.85288C13.5122 6.92469 13.6004 7.0689 13.6004 7.22639C13.6004 7.38387 13.5122 7.52808 13.3721 7.59989V7.59716Z" fill="black"/>
</g>
<defs>
<clipPath id="clip0_2_107">
<rect width="19" height="13" fill="white" transform="translate(0.590027 0.909912)"/>
</clipPath>
</defs>
</svg>
