<svg width="24" height="31" viewBox="0 0 24 31" fill="none" xmlns="http://www.w3.org/2000/svg">
<path d="M11.6938 19.4601V15.5175L14.807 13.5845V17.5271L11.6938 19.4537V19.4601Z" stroke="#1D1D1B" stroke-width="0.382775" stroke-linecap="round" stroke-linejoin="round"/>
<path d="M11.6938 15.5175L8.57416 13.5845V17.5271L11.6938 19.4537" stroke="#1D1D1B" stroke-width="0.382775" stroke-linecap="round" stroke-linejoin="round"/>
<path d="M8.57416 13.5909L11.7002 11.7217L14.807 13.5909" stroke="#1D1D1B" stroke-width="0.382775" stroke-linecap="round" stroke-linejoin="round"/>
<path d="M18.8198 15.8429C18.8198 11.9003 15.6236 8.7041 11.681 8.7041C7.73841 8.7041 4.54224 11.9003 4.54224 15.8429C4.54224 19.7854 7.52788 22.7647 11.2855 22.9689" stroke="#1D1D1B" stroke-width="0.382775" stroke-linecap="round" stroke-linejoin="round"/>
<path d="M15.7065 22.3884C15.6364 22.4395 15.5598 22.4841 15.4896 22.5288" stroke="#1D1D1B" stroke-width="0.382775" stroke-linecap="round" stroke-linejoin="round"/>
<path d="M13.4227 23.0774H13.3908C13.3142 23.0965 13.244 23.1093 13.1675 23.1157" stroke="#1D1D1B" stroke-width="0.382775" stroke-linecap="round" stroke-linejoin="round"/>
<path d="M19.4386 14.5095L19.1388 15.1666L18.8262 15.862L18.3796 15.2432L17.9586 14.6563" stroke="#1D1D1B" stroke-width="0.382775" stroke-linecap="round" stroke-linejoin="round"/>
<path d="M19.4577 14.4712L19.4386 14.5095" stroke="#1D1D1B" stroke-width="0.382775" stroke-linecap="round" stroke-linejoin="round"/>
</svg>
