<svg width="9" height="17" viewBox="0 0 9 17" fill="none" xmlns="http://www.w3.org/2000/svg">
<g clip-path="url(#clip0_2_97)">
<path d="M2.48201 15.9818V9.10607H0V6.43488H2.46226C2.46226 6.32535 2.47542 6.23408 2.47542 6.1489C2.48859 5.38831 2.47542 4.62772 2.52809 3.86713C2.6466 2.19383 4.0094 0.970805 5.8133 0.916043C6.61649 0.891704 7.41969 0.946466 8.22288 0.96472C8.2953 0.96472 8.36114 0.989059 8.45331 1.00731V3.41077C7.97271 3.41077 7.50527 3.41077 7.03784 3.41077C6.84033 3.41077 6.63624 3.41077 6.44532 3.44728C5.84621 3.55072 5.54337 3.84279 5.51703 4.3965C5.4907 5.05365 5.51045 5.71688 5.51045 6.41054H8.37431L7.99904 9.0939H5.50387V15.9757H2.47542L2.48201 15.9818Z" fill="black"/>
</g>
<defs>
<clipPath id="clip0_2_97">
<rect width="9" height="16" fill="white" transform="translate(0 0.909912)"/>
</clipPath>
</defs>
</svg>
