<svg width="20" height="15" viewBox="0 0 20 15" fill="none" xmlns="http://www.w3.org/2000/svg">
<g clip-path="url(#clip0_2_104)">
<path d="M0.0731776 13.0649C2.09434 13.2475 3.9114 12.7851 5.54413 11.6411C3.83898 11.5194 2.68685 10.7223 2.08116 9.26201C2.64077 9.34111 3.1872 9.32894 3.72706 9.18899C2.86461 9.00645 2.15359 8.61095 1.59398 7.97813C1.04096 7.34532 0.771029 6.61516 0.764445 5.78764C1.13313 5.97626 1.51498 6.09796 1.91657 6.16489C2.06141 6.18923 2.21282 6.19531 2.35766 6.20748C2.37741 6.20748 2.39717 6.20748 2.43009 6.20748C1.48206 5.58076 0.92904 4.75323 0.810535 3.69449C0.724949 2.97041 0.896123 2.28284 1.28456 1.64395C3.29913 3.83444 5.84038 5.03313 8.94783 5.22784C8.92808 5.09398 8.90833 4.97837 8.88858 4.86276C8.84908 4.59503 8.84907 4.3273 8.88199 4.05958C8.93466 3.62756 9.06634 3.21988 9.29019 2.83655C9.84979 1.89342 10.6991 1.29103 11.838 1.07807C12.9836 0.865101 14.0238 1.12066 14.9389 1.79606C15.0442 1.87516 15.1364 1.96035 15.2352 2.04553C15.2747 2.07596 15.301 2.08813 15.3537 2.07596C16.1437 1.92384 16.881 1.6622 17.5789 1.29103C17.5921 1.28495 17.6052 1.27886 17.6316 1.26669C17.4933 1.66828 17.2826 2.0212 17.0061 2.34369C16.7296 2.66009 16.407 2.92782 16.0318 3.14687C16.756 3.07385 17.4472 2.8974 18.1056 2.62967L18.1187 2.64184C18.0068 2.78179 17.8949 2.92173 17.783 3.06168C17.3616 3.54846 16.881 3.98048 16.3412 4.35164C16.3017 4.37598 16.2885 4.40641 16.2885 4.449C16.2885 4.68022 16.3017 4.91144 16.2885 5.14266C16.2622 5.51382 16.2359 5.89108 16.1766 6.25616C16.0713 6.94982 15.8738 7.62522 15.6038 8.28237C15.143 9.41413 14.4912 10.4364 13.6353 11.3551C12.4898 12.5782 11.1007 13.4665 9.45478 14.0202C8.77667 14.2454 8.07222 14.4036 7.35461 14.4949C6.637 14.5861 5.9128 14.6226 5.18861 14.5861C3.69414 14.5131 2.27867 14.1724 0.948785 13.5396C0.665691 13.4057 0.395764 13.2536 0.125837 13.1075C0.106087 13.0954 0.0863319 13.0832 0.0599976 13.0649H0.0731776Z" fill="black"/>
</g>
<defs>
<clipPath id="clip0_2_104">
<rect width="19" height="14" fill="white" transform="translate(0.0599976 0.909912)"/>
</clipPath>
</defs>
</svg>
